<svg width="36" height="36" viewBox="0 0 36 36" fill="none" xmlns="http://www.w3.org/2000/svg">
<g clip-path="url(#clip0_6_76)">
<path d="M20.6069 27.3849C17.8114 26.3466 14.936 26.1869 12.3003 26.9057C10.4632 27.3849 8.70604 28.3434 7.10861 29.5415L5.99038 30.4999L5.6709 30.8194L6.38974 31.4584C6.46961 31.4584 6.46962 31.5383 6.54949 31.6181C6.70924 31.7779 6.86899 31.8578 7.10861 32.0175L7.58782 32.337L8.06705 31.9376C8.14693 31.8578 8.30667 31.698 8.46641 31.6181C9.90411 30.4201 11.5015 29.6214 13.1788 29.222C15.3354 28.6629 17.6517 28.7428 19.968 29.6214C21.8849 30.3402 25.7986 31.2188 30.511 29.222L30.6708 29.1421L30.9104 28.9025C30.9104 28.8226 30.9903 28.8226 31.0702 28.7428C31.4695 28.2635 31.8689 27.7843 32.1884 27.2252L33.7858 24.7492L31.2299 26.1868C27.4759 28.2635 24.0414 28.6629 20.6069 27.3849Z" fill="#3A4FC5"/>
<path d="M9.66446 18.7588C11.821 18.1997 14.1373 18.2795 16.4536 19.1581C19.0095 20.1166 25.559 21.4744 32.9072 14.8451L34.1052 13.647L34.1851 13.5671L34.5046 13.2476L34.3449 12.8483C34.265 12.5288 34.1052 12.1294 33.9455 11.7301L33.5461 10.6118L32.7474 11.4106C32.6675 11.5703 32.5078 11.6502 32.3481 11.8099C28.8337 15.4042 23.4024 19.0783 17.1724 16.8419C14.3769 15.8035 11.5015 15.6438 8.86574 16.3626C6.30984 17.0815 4.07343 18.4393 1.99676 20.3562V20.2763L0.798682 21.5543C0.798682 21.6342 0.718825 21.6342 0.638953 21.714L0.399323 21.9537L0.479199 22.2731C0.559071 22.6725 0.71881 23.0719 0.798682 23.4712L1.27792 24.7492L2.07664 23.7108C2.15651 23.5511 2.31625 23.4712 2.39612 23.3115C4.07343 21.7939 6.38972 19.6374 9.66446 18.7588Z" fill="#3A4FC5"/>
<path d="M1.91694 17.3211C3.754 15.4042 5.83065 14.2061 8.06706 13.5671C10.2236 13.008 12.5399 13.0879 14.8562 13.9665C22.0446 16.6022 28.2746 12.2892 30.9903 9.97287L32.0286 8.93455L32.428 8.61504L32.1085 8.13583C31.8689 7.89622 31.7091 7.57672 31.4695 7.25724L30.9903 6.61825L30.4312 7.17736C30.3513 7.25723 30.1916 7.41697 30.1117 7.49684C26.7571 10.6917 21.5654 13.9665 15.6549 11.7301C12.8594 10.6917 9.98399 10.532 7.34822 11.2508C5.67091 11.7301 4.07347 12.5288 2.47603 13.5671L0.798718 14.9249C0.638975 15.0847 0.559103 15.1646 0.399359 15.3243L0.23963 15.484V15.7237C0.159758 16.2828 0.159749 16.8419 0.0798767 17.3211L0 19.3179L1.35783 17.8802C1.51757 17.7204 1.67733 17.4808 1.91694 17.3211Z" fill="#3A4FC5"/>
<path d="M22.9232 32.8162L22.7634 33.2955L22.9232 32.8162C22.6836 32.7364 22.5238 32.6565 22.2842 32.5766C19.4887 31.5383 16.6133 31.3785 13.9775 32.0974C13.4184 32.2571 12.8593 32.4169 12.3002 32.6565L10.3833 33.5351L9.90408 33.7747L11.5015 34.3338C11.9808 34.4935 12.46 34.6533 12.9392 34.813L13.1788 34.8929L13.4184 34.813C13.6581 34.7332 13.8977 34.5734 14.1373 34.5734C14.297 34.5734 14.4568 34.4935 14.6165 34.4137C16.5334 33.9344 18.6101 33.9344 20.8465 34.6533C21.0861 34.7331 21.2459 34.813 21.4855 34.8929L21.8849 35.0526L22.1245 34.9728C22.6836 34.813 23.3225 34.6533 23.8018 34.4137L26.0382 33.6149L23.7219 33.0558C23.4823 32.976 23.1628 32.8961 22.9232 32.8162Z" fill="#3A4FC5"/>
<path d="M35.1436 16.2827L33.9455 17.4808C33.7858 17.6406 33.6261 17.8003 33.4663 17.9601C30.1916 21.0751 24.92 24.4297 19.0095 22.1933C16.214 21.1549 13.3386 20.9952 10.7029 21.714C8.22684 22.4329 5.99041 23.7108 3.99361 25.6278L2.95529 26.746L2.6358 27.1453L2.95529 27.6246C3.1949 27.944 3.35465 28.1837 3.5144 28.5032L3.99361 29.222L4.55272 28.5032C4.63259 28.4233 4.79233 28.2635 4.87221 28.1836C6.78913 26.107 8.8658 24.829 11.262 24.1901C13.4185 23.6309 15.7348 23.7108 18.0511 24.5894C20.0479 25.3083 22.1245 25.5479 24.2012 25.3083C27.8753 24.9089 31.5494 22.8323 34.2651 20.516C34.4248 20.3562 34.5845 20.2764 34.7443 20.1166L34.9839 19.877V19.6374C34.9839 19.1581 35.0638 18.599 35.0638 18.1198L35.1436 16.2827Z" fill="#3A4FC5"/>
<path d="M4.79221 8.93455L4.5526 8.45531L4.79221 8.93455C5.27144 8.69493 5.83056 8.53518 6.30979 8.37544C8.46633 7.81633 10.7826 7.89621 13.0989 8.7748C14.6165 9.3339 16.134 9.57351 17.8113 9.57351C21.1659 9.57351 24.5206 8.37544 27.6356 6.05916L28.8336 5.10069L29.233 4.7812L28.5142 4.22209C28.2745 3.98248 27.955 3.74287 27.6356 3.58313L27.1563 3.26364L26.757 3.58313C26.5972 3.663 26.5173 3.82274 26.3576 3.90261C22.1244 7.09748 17.8912 7.97608 13.8976 6.45852C11.0222 5.42018 8.14683 5.18057 5.27144 6.05916C5.03183 6.13903 4.79221 6.21889 4.47272 6.29876L4.31299 6.37864L4.07336 6.61825C4.07336 6.69812 3.99351 6.69813 3.91364 6.778C3.59415 7.25723 3.19477 7.6566 2.87529 8.13583L1.35773 10.4521L3.83376 9.17416C4.23312 9.17416 4.55259 9.01442 4.79221 8.93455Z" fill="#3A4FC5"/>
<path d="M11.3418 3.50325L11.5814 3.58313C12.6197 3.98249 14.2172 4.38185 16.214 4.38185C18.2907 4.38185 20.2875 3.90261 22.2842 3.10389L24.7603 1.90582L23.083 1.34673C22.6037 1.18698 22.1245 1.02724 21.5654 0.947369H21.3258L21.0862 1.02722C20.8466 1.10709 20.6069 1.26686 20.3673 1.34673C17.9711 2.22532 15.575 2.38506 13.2587 1.74609C13.0191 1.66622 12.7795 1.58633 12.5399 1.50646L12.3003 1.42658L12.0606 1.50646C11.5814 1.6662 11.1022 1.82595 10.623 2.06557L8.78589 2.86429L10.7028 3.42338C10.8626 3.3435 11.1022 3.42338 11.3418 3.50325Z" fill="#3A4FC5"/>
</g>
<defs>
<clipPath id="clip0_6_76">
<rect width="36" height="36" fill="white"/>
</clipPath>
</defs>
</svg>
